<svg xmlns="http://www.w3.org/2000/svg" xmlns:xlink="http://www.w3.org/1999/xlink" width="48" zoomAndPan="magnify" viewBox="0 0 36 36.000001" height="48" preserveAspectRatio="xMidYMid meet" version="1.2"><defs><clipPath id="e35553a541"><path d="M 10.105469 8.742188 L 26.160156 8.742188 L 26.160156 26.253906 L 10.105469 26.253906 Z M 10.105469 8.742188 "/></clipPath><clipPath id="9f4ef60c19"><path d="M 4 3 L 10 3 L 10 9 L 4 9 Z M 4 3 "/></clipPath><clipPath id="382d21bd3b"><path d="M 4.644531 3.886719 L 8.914062 2.925781 L 10.035156 7.90625 L 5.765625 8.871094 Z M 4.644531 3.886719 "/></clipPath><clipPath id="5e6ceeb854"><path d="M 4.644531 3.886719 L 8.914062 2.925781 L 10.035156 7.90625 L 5.765625 8.871094 Z M 4.644531 3.886719 "/></clipPath><clipPath id="014fff8f0c"><path d="M 4.644531 3.886719 L 8.914062 2.925781 L 10.035156 7.90625 L 5.765625 8.871094 Z M 4.644531 3.886719 "/></clipPath><clipPath id="c4ad2f2dfd"><path d="M 24 3 L 30 3 L 30 10 L 24 10 Z M 24 3 "/></clipPath><clipPath id="424e3b0dcf"><path d="M 25.613281 3.503906 L 29.921875 4.285156 L 29.011719 9.308594 L 24.703125 8.53125 Z M 25.613281 3.503906 "/></clipPath><clipPath id="fdf4ed51be"><path d="M 25.613281 3.503906 L 29.921875 4.285156 L 29.011719 9.308594 L 24.703125 8.53125 Z M 25.613281 3.503906 "/></clipPath><clipPath id="52d46d21ff"><path d="M 25.613281 3.503906 L 29.921875 4.285156 L 29.011719 9.308594 L 24.703125 8.53125 Z M 25.613281 3.503906 "/></clipPath></defs><g id="fad4adead0"><g clip-rule="nonzero" clip-path="url(#e35553a541)"><path style=" stroke:none;fill-rule:nonzero;fill:#000000;fill-opacity:1;" d="M 20.832031 15.972656 C 17.929688 15.972656 15.570312 18.289062 15.570312 21.136719 C 15.570312 23.984375 17.929688 26.300781 20.832031 26.300781 C 23.734375 26.300781 26.09375 23.984375 26.09375 21.136719 C 26.09375 18.289062 23.734375 15.972656 20.832031 15.972656 Z M 22.621094 21.808594 L 20.832031 21.808594 C 20.453125 21.808594 20.144531 21.507812 20.144531 21.136719 L 20.144531 19.308594 C 20.144531 18.9375 20.453125 18.636719 20.832031 18.636719 C 21.210938 18.636719 21.519531 18.9375 21.519531 19.308594 L 21.519531 20.460938 L 22.621094 20.460938 C 23 20.460938 23.304688 20.765625 23.304688 21.136719 C 23.304688 21.507812 23 21.808594 22.621094 21.808594 Z M 21.746094 8.789062 L 12.597656 8.789062 C 11.207031 8.789062 10.082031 9.890625 10.082031 11.257812 L 10.082031 22.933594 C 10.082031 24.296875 11.207031 25.402344 12.597656 25.402344 L 15.835938 25.402344 C 14.8125 24.261719 14.199219 22.769531 14.199219 21.136719 C 14.199219 17.542969 17.171875 14.625 20.832031 14.625 C 22.09375 14.625 23.265625 14.964844 24.261719 15.578125 L 24.261719 11.257812 C 24.261719 9.890625 23.136719 8.789062 21.746094 8.789062 Z M 14.425781 18.21875 L 13.511719 18.21875 C 13.136719 18.21875 12.828125 17.914062 12.828125 17.542969 C 12.828125 17.175781 13.136719 16.871094 13.511719 16.871094 L 14.425781 16.871094 C 14.800781 16.871094 15.113281 17.175781 15.113281 17.542969 C 15.113281 17.914062 14.800781 18.21875 14.425781 18.21875 Z M 17.171875 15.523438 L 13.511719 15.523438 C 13.136719 15.523438 12.828125 15.21875 12.828125 14.847656 C 12.828125 14.480469 13.136719 14.175781 13.511719 14.175781 L 17.171875 14.175781 C 17.546875 14.175781 17.859375 14.480469 17.859375 14.847656 C 17.859375 15.21875 17.546875 15.523438 17.171875 15.523438 Z M 20.832031 12.828125 L 13.511719 12.828125 C 13.136719 12.828125 12.828125 12.523438 12.828125 12.15625 C 12.828125 11.785156 13.136719 11.480469 13.511719 11.480469 L 20.832031 11.480469 C 21.207031 11.480469 21.519531 11.785156 21.519531 12.15625 C 21.519531 12.523438 21.207031 12.828125 20.832031 12.828125 Z M 20.832031 12.828125 "/></g><g clip-rule="nonzero" clip-path="url(#9f4ef60c19)"><g clip-rule="nonzero" clip-path="url(#382d21bd3b)"><g clip-rule="nonzero" clip-path="url(#5e6ceeb854)"><g clip-rule="nonzero" clip-path="url(#014fff8f0c)"><path style=" stroke:none;fill-rule:nonzero;fill:#000000;fill-opacity:1;" d="M 7.960938 5.300781 C 7.1875 5.472656 6.707031 6.273438 6.890625 7.085938 C 7.074219 7.894531 7.851562 8.414062 8.621094 8.238281 C 9.394531 8.066406 9.875 7.265625 9.691406 6.453125 C 9.511719 5.644531 8.734375 5.125 7.960938 5.300781 Z M 8.8125 6.855469 L 8.335938 6.960938 C 8.234375 6.984375 8.132812 6.917969 8.109375 6.8125 L 7.992188 6.289062 C 7.96875 6.183594 8.03125 6.082031 8.132812 6.058594 C 8.234375 6.035156 8.332031 6.101562 8.359375 6.207031 L 8.429688 6.535156 L 8.726562 6.472656 C 8.824219 6.449219 8.925781 6.515625 8.949219 6.621094 C 8.976562 6.726562 8.914062 6.832031 8.8125 6.855469 Z M 7.742188 3.199219 L 5.308594 3.75 C 4.9375 3.832031 4.707031 4.214844 4.796875 4.605469 L 5.542969 7.925781 C 5.632812 8.3125 6.003906 8.5625 6.371094 8.476562 L 7.234375 8.285156 C 6.890625 8.019531 6.628906 7.632812 6.527344 7.167969 C 6.296875 6.144531 6.898438 5.136719 7.875 4.917969 C 8.210938 4.839844 8.542969 4.867188 8.847656 4.980469 L 8.574219 3.753906 C 8.484375 3.363281 8.113281 3.117188 7.742188 3.199219 Z M 6.398438 6.324219 L 6.15625 6.378906 C 6.054688 6.402344 5.953125 6.332031 5.929688 6.226562 C 5.90625 6.121094 5.96875 6.015625 6.070312 5.996094 L 6.3125 5.941406 C 6.414062 5.917969 6.515625 5.984375 6.539062 6.089844 C 6.5625 6.195312 6.5 6.300781 6.398438 6.324219 Z M 6.957031 5.390625 L 5.984375 5.613281 C 5.882812 5.632812 5.78125 5.566406 5.757812 5.460938 C 5.734375 5.355469 5.796875 5.25 5.898438 5.226562 L 6.871094 5.007812 C 6.972656 4.984375 7.074219 5.054688 7.097656 5.160156 C 7.121094 5.265625 7.058594 5.371094 6.957031 5.390625 Z M 7.757812 4.40625 L 5.808594 4.84375 C 5.710938 4.867188 5.609375 4.800781 5.585938 4.695312 C 5.5625 4.589844 5.625 4.484375 5.722656 4.460938 L 7.671875 4.023438 C 7.773438 4 7.875 4.066406 7.898438 4.171875 C 7.921875 4.277344 7.859375 4.382812 7.757812 4.40625 Z M 7.757812 4.40625 "/></g></g></g></g><g clip-rule="nonzero" clip-path="url(#c4ad2f2dfd)"><g clip-rule="nonzero" clip-path="url(#424e3b0dcf)"><g clip-rule="nonzero" clip-path="url(#fdf4ed51be)"><g clip-rule="nonzero" clip-path="url(#52d46d21ff)"><path style=" stroke:none;fill-rule:nonzero;fill:#000000;fill-opacity:1;" d="M 28.117188 6.101562 C 27.335938 5.957031 26.582031 6.507812 26.433594 7.328125 C 26.285156 8.144531 26.800781 8.921875 27.578125 9.0625 C 28.359375 9.207031 29.113281 8.65625 29.261719 7.839844 C 29.410156 7.019531 28.894531 6.242188 28.117188 6.101562 Z M 28.292969 7.863281 L 27.8125 7.777344 C 27.710938 7.757812 27.644531 7.65625 27.664062 7.550781 L 27.757812 7.023438 C 27.777344 6.917969 27.875 6.847656 27.976562 6.863281 C 28.078125 6.882812 28.148438 6.984375 28.128906 7.089844 L 28.066406 7.421875 L 28.363281 7.476562 C 28.464844 7.496094 28.53125 7.597656 28.511719 7.703125 C 28.492188 7.808594 28.394531 7.882812 28.292969 7.863281 Z M 28.734375 4.082031 L 26.277344 3.636719 C 25.90625 3.570312 25.546875 3.832031 25.472656 4.222656 L 24.867188 7.574219 C 24.796875 7.964844 25.039062 8.339844 25.414062 8.40625 L 26.285156 8.5625 C 26.070312 8.1875 25.980469 7.730469 26.066406 7.257812 C 26.253906 6.226562 27.203125 5.535156 28.1875 5.714844 C 28.527344 5.773438 28.824219 5.929688 29.058594 6.152344 L 29.28125 4.914062 C 29.355469 4.523438 29.109375 4.148438 28.734375 4.082031 Z M 26.28125 6.433594 L 26.035156 6.386719 C 25.933594 6.371094 25.867188 6.265625 25.882812 6.160156 C 25.902344 6.054688 26.003906 5.984375 26.105469 6 L 26.351562 6.046875 C 26.449219 6.066406 26.519531 6.167969 26.5 6.273438 C 26.480469 6.378906 26.378906 6.449219 26.28125 6.433594 Z M 27.15625 5.792969 L 26.175781 5.613281 C 26.074219 5.597656 26.003906 5.492188 26.023438 5.386719 C 26.042969 5.28125 26.144531 5.210938 26.242188 5.226562 L 27.226562 5.40625 C 27.328125 5.425781 27.394531 5.527344 27.375 5.632812 C 27.355469 5.738281 27.257812 5.8125 27.15625 5.792969 Z M 28.28125 5.199219 L 26.3125 4.839844 C 26.214844 4.824219 26.144531 4.722656 26.164062 4.613281 C 26.183594 4.507812 26.285156 4.4375 26.382812 4.457031 L 28.351562 4.8125 C 28.449219 4.828125 28.519531 4.933594 28.5 5.039062 C 28.480469 5.144531 28.378906 5.214844 28.28125 5.199219 Z M 28.28125 5.199219 "/></g></g></g></g></g></svg>