<svg xmlns="http://www.w3.org/2000/svg" xmlns:xlink="http://www.w3.org/1999/xlink" width="48" zoomAndPan="magnify" viewBox="0 0 36 36.000001" height="48" preserveAspectRatio="xMidYMid meet" version="1.2"><defs><clipPath id="79ee8551c1"><path d="M 9.800781 8.742188 L 25.851562 8.742188 L 25.851562 26.253906 L 9.800781 26.253906 Z M 9.800781 8.742188 "/></clipPath><clipPath id="bac8231994"><path d="M 3.988281 3.503906 L 11.285156 3.503906 L 11.285156 11.53125 L 3.988281 11.53125 Z M 3.988281 3.503906 "/></clipPath><clipPath id="c307d9aab3"><path d="M 24.707031 3.503906 L 32.003906 3.503906 L 32.003906 11.53125 L 24.707031 11.53125 Z M 24.707031 3.503906 "/></clipPath></defs><g id="20e4565baf"><g clip-rule="nonzero" clip-path="url(#79ee8551c1)"><path style=" stroke:none;fill-rule:nonzero;fill:#000000;fill-opacity:1;" d="M 25.496094 25.527344 L 24.066406 25.527344 L 24.066406 24.4375 L 25.136719 24.4375 C 25.335938 24.4375 25.496094 24.273438 25.496094 24.074219 L 25.496094 14.25 C 25.496094 14.121094 25.429688 14.003906 25.320312 13.9375 C 23.429688 12.78125 23.515625 12.828125 23.449219 12.808594 C 23.4375 12.804688 23.421875 12.800781 23.410156 12.800781 C 23.402344 12.796875 23.398438 12.796875 23.394531 12.796875 C 23.363281 12.792969 23.332031 12.792969 23.304688 12.796875 C 23.265625 12.804688 22.128906 13 21.214844 13.152344 L 21.214844 10.613281 C 21.214844 10.5 21.164062 10.398438 21.082031 10.328125 C 19.136719 8.742188 19.292969 8.863281 19.242188 8.835938 C 19.183594 8.804688 19.121094 8.792969 19.0625 8.792969 C 19.050781 8.792969 19.039062 8.796875 19.03125 8.796875 C 19.023438 8.796875 19.003906 8.796875 18.96875 8.808594 C 18.933594 8.820312 17.390625 9.539062 14.644531 10.816406 C 14.519531 10.875 14.4375 11.003906 14.4375 11.144531 L 14.4375 13.726562 C 11.941406 12.769531 12.058594 12.8125 12.015625 12.804688 C 11.96875 12.792969 11.917969 12.792969 11.871094 12.800781 C 11.867188 12.804688 11.863281 12.804688 11.859375 12.804688 C 11.828125 12.8125 11.800781 12.820312 11.773438 12.839844 C 11.765625 12.839844 11.761719 12.84375 11.757812 12.847656 C 11.75 12.851562 11.746094 12.855469 11.738281 12.859375 C 11.734375 12.859375 11.734375 12.863281 11.730469 12.863281 C 11.707031 12.882812 10.65625 13.6875 10.300781 13.960938 C 10.210938 14.027344 10.15625 14.136719 10.15625 14.25 L 10.15625 24.074219 C 10.15625 24.273438 10.316406 24.4375 10.515625 24.4375 L 10.871094 24.4375 L 10.871094 25.527344 L 10.15625 25.527344 C 9.960938 25.527344 9.800781 25.691406 9.800781 25.890625 C 9.800781 26.09375 9.960938 26.253906 10.15625 26.253906 C 10.363281 26.253906 25.285156 26.253906 25.496094 26.253906 C 25.691406 26.253906 25.851562 26.09375 25.851562 25.890625 C 25.851562 25.691406 25.691406 25.527344 25.496094 25.527344 Z M 23.355469 25.527344 L 22.285156 25.527344 L 22.285156 24.4375 L 23.355469 24.4375 Z M 24.78125 23.710938 L 23.710938 23.710938 L 23.710938 13.800781 L 24.78125 14.457031 Z M 22.996094 23.710938 L 22.285156 23.710938 L 22.285156 22.253906 C 22.285156 22.054688 22.125 21.890625 21.925781 21.890625 L 19.429688 21.890625 L 19.429688 14.195312 L 22.996094 13.589844 Z M 20.5 13.273438 L 19.429688 13.457031 L 19.429688 9.914062 L 20.5 10.785156 Z M 15.152344 11.378906 L 18.71875 9.722656 C 18.71875 10.203125 18.71875 21.316406 18.71875 21.890625 L 16.222656 21.890625 C 16.023438 21.890625 15.863281 22.054688 15.863281 22.253906 L 15.863281 23.710938 L 15.152344 23.710938 C 15.152344 23.117188 15.152344 11.960938 15.152344 11.378906 Z M 14.4375 23.710938 L 12.296875 23.710938 L 12.296875 13.683594 L 14.4375 14.503906 Z M 10.871094 14.433594 L 11.585938 13.886719 L 11.585938 23.710938 C 11.335938 23.710938 11.121094 23.710938 10.871094 23.710938 Z M 11.585938 24.4375 C 12.449219 24.4375 14.996094 24.4375 15.863281 24.4375 L 15.863281 25.527344 L 11.585938 25.527344 Z M 16.578125 25.527344 C 16.578125 25.175781 16.578125 22.972656 16.578125 22.617188 C 17.179688 22.617188 20.964844 22.617188 21.570312 22.617188 C 21.570312 22.96875 21.570312 25.171875 21.570312 25.527344 Z M 16.578125 25.527344 "/></g><path style=" stroke:none;fill-rule:nonzero;fill:#000000;fill-opacity:1;" d="M 15.863281 11.703125 L 16.578125 11.703125 L 16.578125 13.160156 L 15.863281 13.160156 Z M 15.863281 11.703125 "/><path style=" stroke:none;fill-rule:nonzero;fill:#000000;fill-opacity:1;" d="M 16.933594 11.703125 L 17.648438 11.703125 L 17.648438 13.160156 L 16.933594 13.160156 Z M 16.933594 11.703125 "/><path style=" stroke:none;fill-rule:nonzero;fill:#000000;fill-opacity:1;" d="M 15.863281 13.523438 L 16.578125 13.523438 L 16.578125 14.976562 L 15.863281 14.976562 Z M 15.863281 13.523438 "/><path style=" stroke:none;fill-rule:nonzero;fill:#000000;fill-opacity:1;" d="M 16.933594 13.523438 L 17.648438 13.523438 L 17.648438 14.976562 L 16.933594 14.976562 Z M 16.933594 13.523438 "/><path style=" stroke:none;fill-rule:nonzero;fill:#000000;fill-opacity:1;" d="M 15.863281 15.339844 L 16.578125 15.339844 L 16.578125 16.796875 L 15.863281 16.796875 Z M 15.863281 15.339844 "/><path style=" stroke:none;fill-rule:nonzero;fill:#000000;fill-opacity:1;" d="M 16.933594 15.339844 L 17.648438 15.339844 L 17.648438 16.796875 L 16.933594 16.796875 Z M 16.933594 15.339844 "/><path style=" stroke:none;fill-rule:nonzero;fill:#000000;fill-opacity:1;" d="M 15.863281 17.160156 L 16.578125 17.160156 L 16.578125 18.617188 L 15.863281 18.617188 Z M 15.863281 17.160156 "/><path style=" stroke:none;fill-rule:nonzero;fill:#000000;fill-opacity:1;" d="M 13.011719 15.339844 L 13.722656 15.339844 L 13.722656 16.796875 L 13.011719 16.796875 Z M 13.011719 15.339844 "/><path style=" stroke:none;fill-rule:nonzero;fill:#000000;fill-opacity:1;" d="M 13.011719 17.160156 L 13.722656 17.160156 L 13.722656 18.617188 L 13.011719 18.617188 Z M 13.011719 17.160156 "/><path style=" stroke:none;fill-rule:nonzero;fill:#000000;fill-opacity:1;" d="M 13.011719 18.980469 L 13.722656 18.980469 L 13.722656 20.433594 L 13.011719 20.433594 Z M 13.011719 18.980469 "/><path style=" stroke:none;fill-rule:nonzero;fill:#000000;fill-opacity:1;" d="M 13.011719 20.796875 L 13.722656 20.796875 L 13.722656 22.253906 L 13.011719 22.253906 Z M 13.011719 20.796875 "/><path style=" stroke:none;fill-rule:nonzero;fill:#000000;fill-opacity:1;" d="M 16.933594 17.160156 L 17.648438 17.160156 L 17.648438 18.617188 L 16.933594 18.617188 Z M 16.933594 17.160156 "/><path style=" stroke:none;fill-rule:nonzero;fill:#000000;fill-opacity:1;" d="M 19.789062 14.613281 L 20.5 14.613281 L 20.5 15.707031 L 19.789062 15.707031 Z M 19.789062 14.613281 "/><path style=" stroke:none;fill-rule:nonzero;fill:#000000;fill-opacity:1;" d="M 20.859375 14.613281 L 21.570312 14.613281 L 21.570312 15.707031 L 20.859375 15.707031 Z M 20.859375 14.613281 "/><path style=" stroke:none;fill-rule:nonzero;fill:#000000;fill-opacity:1;" d="M 21.925781 14.613281 L 22.640625 14.613281 L 22.640625 15.707031 L 21.925781 15.707031 Z M 21.925781 14.613281 "/><path style=" stroke:none;fill-rule:nonzero;fill:#000000;fill-opacity:1;" d="M 19.789062 16.070312 L 20.5 16.070312 L 20.5 17.160156 L 19.789062 17.160156 Z M 19.789062 16.070312 "/><path style=" stroke:none;fill-rule:nonzero;fill:#000000;fill-opacity:1;" d="M 20.859375 16.070312 L 21.570312 16.070312 L 21.570312 17.160156 L 20.859375 17.160156 Z M 20.859375 16.070312 "/><path style=" stroke:none;fill-rule:nonzero;fill:#000000;fill-opacity:1;" d="M 21.925781 16.070312 L 22.640625 16.070312 L 22.640625 17.160156 L 21.925781 17.160156 Z M 21.925781 16.070312 "/><path style=" stroke:none;fill-rule:nonzero;fill:#000000;fill-opacity:1;" d="M 19.789062 17.523438 L 20.5 17.523438 L 20.5 18.617188 L 19.789062 18.617188 Z M 19.789062 17.523438 "/><path style=" stroke:none;fill-rule:nonzero;fill:#000000;fill-opacity:1;" d="M 20.859375 17.523438 L 21.570312 17.523438 L 21.570312 18.617188 L 20.859375 18.617188 Z M 20.859375 17.523438 "/><path style=" stroke:none;fill-rule:nonzero;fill:#000000;fill-opacity:1;" d="M 21.925781 17.523438 L 22.640625 17.523438 L 22.640625 18.617188 L 21.925781 18.617188 Z M 21.925781 17.523438 "/><path style=" stroke:none;fill-rule:nonzero;fill:#000000;fill-opacity:1;" d="M 19.789062 18.980469 L 20.5 18.980469 L 20.5 20.070312 L 19.789062 20.070312 Z M 19.789062 18.980469 "/><path style=" stroke:none;fill-rule:nonzero;fill:#000000;fill-opacity:1;" d="M 20.859375 18.980469 L 21.570312 18.980469 L 21.570312 20.070312 L 20.859375 20.070312 Z M 20.859375 18.980469 "/><path style=" stroke:none;fill-rule:nonzero;fill:#000000;fill-opacity:1;" d="M 19.789062 20.433594 L 20.5 20.433594 L 20.5 21.527344 L 19.789062 21.527344 Z M 19.789062 20.433594 "/><path style=" stroke:none;fill-rule:nonzero;fill:#000000;fill-opacity:1;" d="M 15.863281 18.980469 L 16.578125 18.980469 L 16.578125 20.433594 L 15.863281 20.433594 Z M 15.863281 18.980469 "/><path style=" stroke:none;fill-rule:nonzero;fill:#000000;fill-opacity:1;" d="M 17.289062 22.980469 L 20.859375 22.980469 L 20.859375 23.710938 L 17.289062 23.710938 Z M 17.289062 22.980469 "/><path style=" stroke:none;fill-rule:nonzero;fill:#000000;fill-opacity:1;" d="M 17.289062 24.074219 L 20.859375 24.074219 L 20.859375 24.800781 L 17.289062 24.800781 Z M 17.289062 24.074219 "/><g clip-rule="nonzero" clip-path="url(#bac8231994)"><path style=" stroke:none;fill-rule:nonzero;fill:#000000;fill-opacity:1;" d="M 11.125 11.195312 L 10.476562 11.195312 L 10.476562 10.695312 L 10.960938 10.695312 C 11.050781 10.695312 11.125 10.621094 11.125 10.527344 L 11.125 6.027344 C 11.125 5.96875 11.09375 5.914062 11.046875 5.886719 C 10.1875 5.355469 10.226562 5.375 10.195312 5.367188 C 10.1875 5.367188 10.183594 5.363281 10.175781 5.363281 C 10.171875 5.363281 10.171875 5.363281 10.167969 5.363281 C 10.15625 5.359375 10.140625 5.359375 10.128906 5.363281 C 10.113281 5.367188 9.59375 5.453125 9.179688 5.527344 L 9.179688 4.359375 C 9.179688 4.3125 9.15625 4.261719 9.117188 4.230469 C 8.234375 3.503906 8.304688 3.558594 8.28125 3.546875 C 8.257812 3.535156 8.226562 3.527344 8.199219 3.527344 C 8.195312 3.527344 8.191406 3.527344 8.183594 3.53125 C 8.183594 3.53125 8.171875 3.53125 8.15625 3.535156 C 8.140625 3.539062 7.4375 3.871094 6.191406 4.453125 C 6.132812 4.480469 6.097656 4.539062 6.097656 4.605469 L 6.097656 5.789062 C 4.960938 5.351562 5.015625 5.371094 4.996094 5.363281 C 4.976562 5.359375 4.953125 5.359375 4.929688 5.363281 C 4.929688 5.363281 4.925781 5.367188 4.925781 5.367188 C 4.910156 5.371094 4.898438 5.375 4.886719 5.382812 C 4.882812 5.382812 4.882812 5.382812 4.878906 5.386719 C 4.875 5.386719 4.871094 5.390625 4.871094 5.390625 C 4.867188 5.390625 4.867188 5.390625 4.867188 5.394531 C 4.855469 5.402344 4.378906 5.769531 4.214844 5.894531 C 4.175781 5.925781 4.152344 5.976562 4.152344 6.027344 L 4.152344 10.527344 C 4.152344 10.621094 4.222656 10.695312 4.3125 10.695312 L 4.476562 10.695312 L 4.476562 11.195312 L 4.152344 11.195312 C 4.0625 11.195312 3.988281 11.269531 3.988281 11.359375 C 3.988281 11.453125 4.0625 11.527344 4.152344 11.527344 C 4.246094 11.527344 11.027344 11.527344 11.125 11.527344 C 11.214844 11.527344 11.285156 11.453125 11.285156 11.359375 C 11.285156 11.269531 11.214844 11.195312 11.125 11.195312 Z M 10.152344 11.195312 L 9.664062 11.195312 L 9.664062 10.695312 L 10.152344 10.695312 Z M 10.800781 10.359375 L 10.3125 10.359375 L 10.3125 5.820312 L 10.800781 6.121094 Z M 9.988281 10.359375 L 9.664062 10.359375 L 9.664062 9.695312 C 9.664062 9.601562 9.59375 9.527344 9.503906 9.527344 L 8.367188 9.527344 L 8.367188 6.003906 L 9.988281 5.726562 Z M 8.855469 5.582031 L 8.367188 5.664062 L 8.367188 4.042969 L 8.855469 4.441406 Z M 6.421875 4.714844 L 8.042969 3.953125 C 8.042969 4.171875 8.042969 9.265625 8.042969 9.527344 L 6.90625 9.527344 C 6.820312 9.527344 6.746094 9.601562 6.746094 9.695312 L 6.746094 10.359375 L 6.421875 10.359375 C 6.421875 10.089844 6.421875 4.980469 6.421875 4.714844 Z M 6.097656 10.359375 L 5.125 10.359375 L 5.125 5.769531 L 6.097656 6.144531 Z M 4.476562 6.109375 L 4.800781 5.859375 L 4.800781 10.359375 C 4.6875 10.359375 4.589844 10.359375 4.476562 10.359375 Z M 4.800781 10.695312 C 5.195312 10.695312 6.351562 10.695312 6.746094 10.695312 L 6.746094 11.195312 L 4.800781 11.195312 Z M 7.070312 11.195312 C 7.070312 11.03125 7.070312 10.023438 7.070312 9.859375 C 7.34375 9.859375 9.0625 9.859375 9.339844 9.859375 C 9.339844 10.023438 9.339844 11.03125 9.339844 11.195312 Z M 7.070312 11.195312 "/></g><path style=" stroke:none;fill-rule:nonzero;fill:#000000;fill-opacity:1;" d="M 6.746094 4.859375 L 7.070312 4.859375 L 7.070312 5.527344 L 6.746094 5.527344 Z M 6.746094 4.859375 "/><path style=" stroke:none;fill-rule:nonzero;fill:#000000;fill-opacity:1;" d="M 7.234375 4.859375 L 7.558594 4.859375 L 7.558594 5.527344 L 7.234375 5.527344 Z M 7.234375 4.859375 "/><path style=" stroke:none;fill-rule:nonzero;fill:#000000;fill-opacity:1;" d="M 6.746094 5.695312 L 7.070312 5.695312 L 7.070312 6.359375 L 6.746094 6.359375 Z M 6.746094 5.695312 "/><path style=" stroke:none;fill-rule:nonzero;fill:#000000;fill-opacity:1;" d="M 7.234375 5.695312 L 7.558594 5.695312 L 7.558594 6.359375 L 7.234375 6.359375 Z M 7.234375 5.695312 "/><path style=" stroke:none;fill-rule:nonzero;fill:#000000;fill-opacity:1;" d="M 6.746094 6.527344 L 7.070312 6.527344 L 7.070312 7.195312 L 6.746094 7.195312 Z M 6.746094 6.527344 "/><path style=" stroke:none;fill-rule:nonzero;fill:#000000;fill-opacity:1;" d="M 7.234375 6.527344 L 7.558594 6.527344 L 7.558594 7.195312 L 7.234375 7.195312 Z M 7.234375 6.527344 "/><path style=" stroke:none;fill-rule:nonzero;fill:#000000;fill-opacity:1;" d="M 6.746094 7.359375 L 7.070312 7.359375 L 7.070312 8.027344 L 6.746094 8.027344 Z M 6.746094 7.359375 "/><path style=" stroke:none;fill-rule:nonzero;fill:#000000;fill-opacity:1;" d="M 5.449219 6.527344 L 5.773438 6.527344 L 5.773438 7.195312 L 5.449219 7.195312 Z M 5.449219 6.527344 "/><path style=" stroke:none;fill-rule:nonzero;fill:#000000;fill-opacity:1;" d="M 5.449219 7.359375 L 5.773438 7.359375 L 5.773438 8.027344 L 5.449219 8.027344 Z M 5.449219 7.359375 "/><path style=" stroke:none;fill-rule:nonzero;fill:#000000;fill-opacity:1;" d="M 5.449219 8.195312 L 5.773438 8.195312 L 5.773438 8.859375 L 5.449219 8.859375 Z M 5.449219 8.195312 "/><path style=" stroke:none;fill-rule:nonzero;fill:#000000;fill-opacity:1;" d="M 5.449219 9.027344 L 5.773438 9.027344 L 5.773438 9.695312 L 5.449219 9.695312 Z M 5.449219 9.027344 "/><path style=" stroke:none;fill-rule:nonzero;fill:#000000;fill-opacity:1;" d="M 7.234375 7.359375 L 7.558594 7.359375 L 7.558594 8.027344 L 7.234375 8.027344 Z M 7.234375 7.359375 "/><path style=" stroke:none;fill-rule:nonzero;fill:#000000;fill-opacity:1;" d="M 8.53125 6.195312 L 8.855469 6.195312 L 8.855469 6.695312 L 8.53125 6.695312 Z M 8.53125 6.195312 "/><path style=" stroke:none;fill-rule:nonzero;fill:#000000;fill-opacity:1;" d="M 9.015625 6.195312 L 9.339844 6.195312 L 9.339844 6.695312 L 9.015625 6.695312 Z M 9.015625 6.195312 "/><path style=" stroke:none;fill-rule:nonzero;fill:#000000;fill-opacity:1;" d="M 9.503906 6.195312 L 9.828125 6.195312 L 9.828125 6.695312 L 9.503906 6.695312 Z M 9.503906 6.195312 "/><path style=" stroke:none;fill-rule:nonzero;fill:#000000;fill-opacity:1;" d="M 8.53125 6.859375 L 8.855469 6.859375 L 8.855469 7.359375 L 8.53125 7.359375 Z M 8.53125 6.859375 "/><path style=" stroke:none;fill-rule:nonzero;fill:#000000;fill-opacity:1;" d="M 9.015625 6.859375 L 9.339844 6.859375 L 9.339844 7.359375 L 9.015625 7.359375 Z M 9.015625 6.859375 "/><path style=" stroke:none;fill-rule:nonzero;fill:#000000;fill-opacity:1;" d="M 9.503906 6.859375 L 9.828125 6.859375 L 9.828125 7.359375 L 9.503906 7.359375 Z M 9.503906 6.859375 "/><path style=" stroke:none;fill-rule:nonzero;fill:#000000;fill-opacity:1;" d="M 8.53125 7.527344 L 8.855469 7.527344 L 8.855469 8.027344 L 8.53125 8.027344 Z M 8.53125 7.527344 "/><path style=" stroke:none;fill-rule:nonzero;fill:#000000;fill-opacity:1;" d="M 9.015625 7.527344 L 9.339844 7.527344 L 9.339844 8.027344 L 9.015625 8.027344 Z M 9.015625 7.527344 "/><path style=" stroke:none;fill-rule:nonzero;fill:#000000;fill-opacity:1;" d="M 9.503906 7.527344 L 9.828125 7.527344 L 9.828125 8.027344 L 9.503906 8.027344 Z M 9.503906 7.527344 "/><path style=" stroke:none;fill-rule:nonzero;fill:#000000;fill-opacity:1;" d="M 8.53125 8.195312 L 8.855469 8.195312 L 8.855469 8.695312 L 8.53125 8.695312 Z M 8.53125 8.195312 "/><path style=" stroke:none;fill-rule:nonzero;fill:#000000;fill-opacity:1;" d="M 9.015625 8.195312 L 9.339844 8.195312 L 9.339844 8.695312 L 9.015625 8.695312 Z M 9.015625 8.195312 "/><path style=" stroke:none;fill-rule:nonzero;fill:#000000;fill-opacity:1;" d="M 8.53125 8.859375 L 8.855469 8.859375 L 8.855469 9.359375 L 8.53125 9.359375 Z M 8.53125 8.859375 "/><path style=" stroke:none;fill-rule:nonzero;fill:#000000;fill-opacity:1;" d="M 6.746094 8.195312 L 7.070312 8.195312 L 7.070312 8.859375 L 6.746094 8.859375 Z M 6.746094 8.195312 "/><path style=" stroke:none;fill-rule:nonzero;fill:#000000;fill-opacity:1;" d="M 7.394531 10.027344 L 9.015625 10.027344 L 9.015625 10.359375 L 7.394531 10.359375 Z M 7.394531 10.027344 "/><path style=" stroke:none;fill-rule:nonzero;fill:#000000;fill-opacity:1;" d="M 7.394531 10.527344 L 9.015625 10.527344 L 9.015625 10.859375 L 7.394531 10.859375 Z M 7.394531 10.527344 "/><g clip-rule="nonzero" clip-path="url(#c307d9aab3)"><path style=" stroke:none;fill-rule:nonzero;fill:#000000;fill-opacity:1;" d="M 31.84375 11.195312 L 31.195312 11.195312 L 31.195312 10.695312 L 31.679688 10.695312 C 31.769531 10.695312 31.84375 10.621094 31.84375 10.527344 L 31.84375 6.027344 C 31.84375 5.96875 31.8125 5.914062 31.765625 5.886719 C 30.902344 5.355469 30.945312 5.375 30.914062 5.367188 C 30.90625 5.367188 30.902344 5.363281 30.894531 5.363281 C 30.890625 5.363281 30.890625 5.363281 30.886719 5.363281 C 30.875 5.359375 30.859375 5.359375 30.847656 5.363281 C 30.828125 5.367188 30.3125 5.453125 29.898438 5.527344 L 29.898438 4.359375 C 29.898438 4.3125 29.875 4.261719 29.835938 4.230469 C 28.953125 3.503906 29.023438 3.558594 29 3.546875 C 28.972656 3.535156 28.945312 3.527344 28.917969 3.527344 C 28.914062 3.527344 28.90625 3.527344 28.902344 3.53125 C 28.902344 3.53125 28.890625 3.53125 28.875 3.535156 C 28.859375 3.539062 28.15625 3.871094 26.910156 4.453125 C 26.851562 4.480469 26.816406 4.539062 26.816406 4.605469 L 26.816406 5.789062 C 25.679688 5.351562 25.734375 5.371094 25.714844 5.363281 C 25.691406 5.359375 25.671875 5.359375 25.648438 5.363281 C 25.648438 5.363281 25.644531 5.367188 25.644531 5.367188 C 25.628906 5.371094 25.617188 5.375 25.605469 5.382812 C 25.601562 5.382812 25.597656 5.382812 25.597656 5.386719 C 25.59375 5.386719 25.589844 5.390625 25.589844 5.390625 C 25.585938 5.390625 25.585938 5.390625 25.585938 5.394531 C 25.574219 5.402344 25.097656 5.769531 24.933594 5.894531 C 24.894531 5.925781 24.871094 5.976562 24.871094 6.027344 L 24.871094 10.527344 C 24.871094 10.621094 24.941406 10.695312 25.03125 10.695312 L 25.195312 10.695312 L 25.195312 11.195312 L 24.871094 11.195312 C 24.78125 11.195312 24.707031 11.269531 24.707031 11.359375 C 24.707031 11.453125 24.78125 11.527344 24.871094 11.527344 C 24.964844 11.527344 31.746094 11.527344 31.84375 11.527344 C 31.933594 11.527344 32.003906 11.453125 32.003906 11.359375 C 32.003906 11.269531 31.933594 11.195312 31.84375 11.195312 Z M 30.871094 11.195312 L 30.382812 11.195312 L 30.382812 10.695312 L 30.871094 10.695312 Z M 31.519531 10.359375 L 31.03125 10.359375 L 31.03125 5.820312 L 31.519531 6.121094 Z M 30.707031 10.359375 L 30.382812 10.359375 L 30.382812 9.695312 C 30.382812 9.601562 30.308594 9.527344 30.222656 9.527344 L 29.085938 9.527344 L 29.085938 6.003906 L 30.707031 5.726562 Z M 29.574219 5.582031 L 29.085938 5.664062 L 29.085938 4.042969 L 29.574219 4.441406 Z M 27.140625 4.714844 L 28.761719 3.953125 C 28.761719 4.171875 28.761719 9.265625 28.761719 9.527344 L 27.625 9.527344 C 27.535156 9.527344 27.464844 9.601562 27.464844 9.695312 L 27.464844 10.359375 L 27.140625 10.359375 C 27.140625 10.089844 27.140625 4.980469 27.140625 4.714844 Z M 26.816406 10.359375 L 25.84375 10.359375 L 25.84375 5.769531 L 26.816406 6.144531 Z M 25.195312 6.109375 L 25.519531 5.859375 L 25.519531 10.359375 C 25.40625 10.359375 25.308594 10.359375 25.195312 10.359375 Z M 25.519531 10.695312 C 25.910156 10.695312 27.070312 10.695312 27.464844 10.695312 L 27.464844 11.195312 L 25.519531 11.195312 Z M 27.789062 11.195312 C 27.789062 11.03125 27.789062 10.023438 27.789062 9.859375 C 28.0625 9.859375 29.78125 9.859375 30.058594 9.859375 C 30.058594 10.023438 30.058594 11.03125 30.058594 11.195312 Z M 27.789062 11.195312 "/></g><path style=" stroke:none;fill-rule:nonzero;fill:#000000;fill-opacity:1;" d="M 27.464844 4.859375 L 27.789062 4.859375 L 27.789062 5.527344 L 27.464844 5.527344 Z M 27.464844 4.859375 "/><path style=" stroke:none;fill-rule:nonzero;fill:#000000;fill-opacity:1;" d="M 27.949219 4.859375 L 28.273438 4.859375 L 28.273438 5.527344 L 27.949219 5.527344 Z M 27.949219 4.859375 "/><path style=" stroke:none;fill-rule:nonzero;fill:#000000;fill-opacity:1;" d="M 27.464844 5.695312 L 27.789062 5.695312 L 27.789062 6.359375 L 27.464844 6.359375 Z M 27.464844 5.695312 "/><path style=" stroke:none;fill-rule:nonzero;fill:#000000;fill-opacity:1;" d="M 27.949219 5.695312 L 28.273438 5.695312 L 28.273438 6.359375 L 27.949219 6.359375 Z M 27.949219 5.695312 "/><path style=" stroke:none;fill-rule:nonzero;fill:#000000;fill-opacity:1;" d="M 27.464844 6.527344 L 27.789062 6.527344 L 27.789062 7.195312 L 27.464844 7.195312 Z M 27.464844 6.527344 "/><path style=" stroke:none;fill-rule:nonzero;fill:#000000;fill-opacity:1;" d="M 27.949219 6.527344 L 28.273438 6.527344 L 28.273438 7.195312 L 27.949219 7.195312 Z M 27.949219 6.527344 "/><path style=" stroke:none;fill-rule:nonzero;fill:#000000;fill-opacity:1;" d="M 27.464844 7.359375 L 27.789062 7.359375 L 27.789062 8.027344 L 27.464844 8.027344 Z M 27.464844 7.359375 "/><path style=" stroke:none;fill-rule:nonzero;fill:#000000;fill-opacity:1;" d="M 26.167969 6.527344 L 26.492188 6.527344 L 26.492188 7.195312 L 26.167969 7.195312 Z M 26.167969 6.527344 "/><path style=" stroke:none;fill-rule:nonzero;fill:#000000;fill-opacity:1;" d="M 26.167969 7.359375 L 26.492188 7.359375 L 26.492188 8.027344 L 26.167969 8.027344 Z M 26.167969 7.359375 "/><path style=" stroke:none;fill-rule:nonzero;fill:#000000;fill-opacity:1;" d="M 26.167969 8.195312 L 26.492188 8.195312 L 26.492188 8.859375 L 26.167969 8.859375 Z M 26.167969 8.195312 "/><path style=" stroke:none;fill-rule:nonzero;fill:#000000;fill-opacity:1;" d="M 26.167969 9.027344 L 26.492188 9.027344 L 26.492188 9.695312 L 26.167969 9.695312 Z M 26.167969 9.027344 "/><path style=" stroke:none;fill-rule:nonzero;fill:#000000;fill-opacity:1;" d="M 27.949219 7.359375 L 28.273438 7.359375 L 28.273438 8.027344 L 27.949219 8.027344 Z M 27.949219 7.359375 "/><path style=" stroke:none;fill-rule:nonzero;fill:#000000;fill-opacity:1;" d="M 29.246094 6.195312 L 29.574219 6.195312 L 29.574219 6.695312 L 29.246094 6.695312 Z M 29.246094 6.195312 "/><path style=" stroke:none;fill-rule:nonzero;fill:#000000;fill-opacity:1;" d="M 29.734375 6.195312 L 30.058594 6.195312 L 30.058594 6.695312 L 29.734375 6.695312 Z M 29.734375 6.195312 "/><path style=" stroke:none;fill-rule:nonzero;fill:#000000;fill-opacity:1;" d="M 30.222656 6.195312 L 30.546875 6.195312 L 30.546875 6.695312 L 30.222656 6.695312 Z M 30.222656 6.195312 "/><path style=" stroke:none;fill-rule:nonzero;fill:#000000;fill-opacity:1;" d="M 29.246094 6.859375 L 29.574219 6.859375 L 29.574219 7.359375 L 29.246094 7.359375 Z M 29.246094 6.859375 "/><path style=" stroke:none;fill-rule:nonzero;fill:#000000;fill-opacity:1;" d="M 29.734375 6.859375 L 30.058594 6.859375 L 30.058594 7.359375 L 29.734375 7.359375 Z M 29.734375 6.859375 "/><path style=" stroke:none;fill-rule:nonzero;fill:#000000;fill-opacity:1;" d="M 30.222656 6.859375 L 30.546875 6.859375 L 30.546875 7.359375 L 30.222656 7.359375 Z M 30.222656 6.859375 "/><path style=" stroke:none;fill-rule:nonzero;fill:#000000;fill-opacity:1;" d="M 29.246094 7.527344 L 29.574219 7.527344 L 29.574219 8.027344 L 29.246094 8.027344 Z M 29.246094 7.527344 "/><path style=" stroke:none;fill-rule:nonzero;fill:#000000;fill-opacity:1;" d="M 29.734375 7.527344 L 30.058594 7.527344 L 30.058594 8.027344 L 29.734375 8.027344 Z M 29.734375 7.527344 "/><path style=" stroke:none;fill-rule:nonzero;fill:#000000;fill-opacity:1;" d="M 30.222656 7.527344 L 30.546875 7.527344 L 30.546875 8.027344 L 30.222656 8.027344 Z M 30.222656 7.527344 "/><path style=" stroke:none;fill-rule:nonzero;fill:#000000;fill-opacity:1;" d="M 29.246094 8.195312 L 29.574219 8.195312 L 29.574219 8.695312 L 29.246094 8.695312 Z M 29.246094 8.195312 "/><path style=" stroke:none;fill-rule:nonzero;fill:#000000;fill-opacity:1;" d="M 29.734375 8.195312 L 30.058594 8.195312 L 30.058594 8.695312 L 29.734375 8.695312 Z M 29.734375 8.195312 "/><path style=" stroke:none;fill-rule:nonzero;fill:#000000;fill-opacity:1;" d="M 29.246094 8.859375 L 29.574219 8.859375 L 29.574219 9.359375 L 29.246094 9.359375 Z M 29.246094 8.859375 "/><path style=" stroke:none;fill-rule:nonzero;fill:#000000;fill-opacity:1;" d="M 27.464844 8.195312 L 27.789062 8.195312 L 27.789062 8.859375 L 27.464844 8.859375 Z M 27.464844 8.195312 "/><path style=" stroke:none;fill-rule:nonzero;fill:#000000;fill-opacity:1;" d="M 28.113281 10.027344 L 29.734375 10.027344 L 29.734375 10.359375 L 28.113281 10.359375 Z M 28.113281 10.027344 "/><path style=" stroke:none;fill-rule:nonzero;fill:#000000;fill-opacity:1;" d="M 28.113281 10.527344 L 29.734375 10.527344 L 29.734375 10.859375 L 28.113281 10.859375 Z M 28.113281 10.527344 "/></g></svg>