<svg xmlns="http://www.w3.org/2000/svg" xmlns:xlink="http://www.w3.org/1999/xlink" width="48" zoomAndPan="magnify" viewBox="0 0 36 36.000001" height="48" preserveAspectRatio="xMidYMid meet" version="1.2"><defs><clipPath id="0cb93e62e6"><path d="M 10.390625 8.742188 L 25.714844 8.742188 L 25.714844 26.253906 L 10.390625 26.253906 Z M 10.390625 8.742188 "/></clipPath><clipPath id="e5be7326c6"><path d="M 4 3.503906 L 12 3.503906 L 12 12.257812 L 4 12.257812 Z M 4 3.503906 "/></clipPath><clipPath id="c7fe3a1c50"><path d="M 24.183594 3.503906 L 32.210938 3.503906 L 32.210938 12.257812 L 24.183594 12.257812 Z M 24.183594 3.503906 "/></clipPath></defs><g id="ff97fca04f"><g clip-rule="nonzero" clip-path="url(#0cb93e62e6)"><path style=" stroke:none;fill-rule:nonzero;fill:#000000;fill-opacity:1;" d="M 25.535156 18.902344 C 25.535156 18.902344 23.507812 15.789062 23.507812 15.789062 C 23.335938 15.515625 22.941406 15.433594 22.679688 15.613281 L 21.792969 16.175781 C 21.59375 16.304688 21.496094 16.527344 21.523438 16.746094 L 19.886719 17.289062 L 18.355469 17.925781 L 15.960938 17.316406 L 14.441406 17.078125 C 14.667969 16.800781 14.628906 16.375 14.316406 16.175781 C 14.316406 16.175781 13.429688 15.613281 13.429688 15.613281 C 13.148438 15.433594 12.777344 15.515625 12.597656 15.789062 L 10.570312 18.902344 C 10.390625 19.167969 10.476562 19.554688 10.75 19.722656 C 10.75 19.722656 11.632812 20.289062 11.632812 20.289062 C 11.859375 20.441406 12.179688 20.410156 12.367188 20.222656 C 12.539062 20.667969 12.773438 21.316406 12.941406 21.78125 C 13.0625 22.109375 13.273438 22.398438 13.554688 22.609375 C 13.089844 23.21875 13.664062 24.121094 14.417969 23.964844 C 14.359375 24.625 15.148438 25.109375 15.71875 24.757812 C 15.839844 25.316406 16.558594 25.59375 17.03125 25.269531 C 17.195312 25.910156 18.09375 26.109375 18.519531 25.597656 C 18.746094 25.734375 18.914062 25.835938 19.007812 25.890625 C 19.570312 26.25 20.382812 25.78125 20.328125 25.113281 C 20.890625 25.476562 21.695312 24.992188 21.644531 24.335938 C 22.605469 25.085938 23.710938 23.863281 22.835938 23.042969 C 23.234375 22.875 23.453125 22.367188 23.289062 21.960938 C 23.679688 21.46875 23.667969 20.882812 23.800781 20.273438 C 23.996094 20.417969 24.273438 20.421875 24.480469 20.289062 C 24.480469 20.289062 25.367188 19.722656 25.367188 19.722656 C 25.628906 19.554688 25.714844 19.164062 25.535156 18.902344 Z M 12.136719 19.90625 C 12.105469 19.953125 12.058594 19.984375 12 19.996094 C 11.945312 20.007812 11.890625 19.996094 11.839844 19.964844 L 10.953125 19.398438 C 10.90625 19.371094 10.875 19.324219 10.863281 19.269531 C 10.851562 19.214844 10.863281 19.15625 10.894531 19.109375 L 12.921875 16 C 12.984375 15.902344 13.117188 15.871094 13.21875 15.933594 L 14.105469 16.5 C 14.203125 16.566406 14.234375 16.695312 14.167969 16.792969 Z M 13.980469 23.511719 C 13.765625 23.367188 13.707031 23.058594 13.855469 22.839844 L 13.976562 22.667969 C 14.046875 22.566406 14.207031 22.339844 14.277344 22.238281 C 14.652344 21.726562 15.417969 22.246094 15.074219 22.78125 C 15.027344 22.847656 14.9375 22.984375 14.890625 23.050781 L 14.65625 23.386719 C 14.515625 23.601562 14.195312 23.664062 13.980469 23.511719 Z M 15.824219 24.074219 L 15.683594 24.28125 C 15.53125 24.5 15.226562 24.550781 15.007812 24.402344 C 14.789062 24.257812 14.730469 23.945312 14.882812 23.734375 L 15.070312 23.460938 L 15.304688 23.121094 C 15.738281 22.59375 16.492188 23.21875 16.046875 23.742188 C 16.050781 23.75 15.816406 24.085938 15.824219 24.074219 Z M 16.957031 24.816406 C 16.808594 25.035156 16.503906 25.085938 16.285156 24.9375 C 16.078125 24.804688 16.011719 24.5 16.140625 24.292969 C 16.164062 24.265625 16.410156 23.902344 16.421875 23.890625 C 16.457031 23.839844 16.539062 23.71875 16.578125 23.667969 C 16.949219 23.160156 17.707031 23.667969 17.386719 24.199219 C 17.382812 24.199219 16.957031 24.816406 16.957031 24.816406 Z M 18.265625 25.300781 C 18.113281 25.519531 17.808594 25.574219 17.589844 25.425781 C 17.367188 25.28125 17.3125 24.964844 17.464844 24.753906 C 17.5 24.695312 17.71875 24.386719 17.75 24.339844 C 17.789062 24.285156 17.878906 24.140625 17.925781 24.097656 C 18.351562 23.675781 19 24.203125 18.679688 24.695312 C 18.660156 24.726562 18.277344 25.28125 18.265625 25.300781 Z M 19.871094 25.398438 C 19.734375 25.621094 19.433594 25.695312 19.207031 25.5625 C 19.109375 25.503906 18.964844 25.417969 18.742188 25.285156 C 18.914062 25.03125 19.1875 24.714844 19.152344 24.382812 L 19.738281 24.769531 C 19.941406 24.910156 19.996094 25.1875 19.871094 25.398438 Z M 22.945312 22.332031 C 22.902344 22.65625 22.523438 22.839844 22.238281 22.679688 C 22.238281 22.679688 20.292969 21.503906 20.292969 21.503906 C 20.074219 21.375 19.875 21.699219 20.09375 21.832031 C 20.09375 21.832031 22.039062 23.011719 22.039062 23.011719 C 22.285156 23.179688 22.6875 23.3125 22.742188 23.597656 C 22.859375 23.996094 22.371094 24.351562 22.023438 24.125 C 21.519531 23.839844 20.144531 22.960938 19.636719 22.636719 C 19.425781 22.5 19.214844 22.820312 19.429688 22.960938 C 19.429688 22.960938 21.039062 23.984375 21.039062 23.984375 C 21.558594 24.332031 21.058594 25.105469 20.523438 24.792969 C 20.523438 24.792969 19.953125 24.449219 19.953125 24.449219 L 18.789062 23.691406 C 18.480469 23.554688 18.109375 23.5 17.808594 23.703125 C 17.671875 23.179688 17.015625 22.914062 16.542969 23.191406 C 16.4375 22.765625 15.980469 22.46875 15.539062 22.558594 C 15.582031 21.800781 14.652344 21.355469 14.089844 21.875 C 13.976562 21.960938 13.851562 22.183594 13.769531 22.296875 C 13.554688 22.132812 13.394531 21.910156 13.300781 21.65625 C 13.101562 21.097656 12.796875 20.277344 12.632812 19.847656 L 14.207031 17.4375 L 15.878906 17.695312 L 17.757812 18.175781 C 17.703125 18.199219 17.382812 18.316406 17.347656 18.363281 C 17.347656 18.363281 16.265625 19.492188 16.265625 19.492188 C 15.90625 19.84375 15.980469 20.488281 16.402344 20.757812 C 16.6875 20.949219 17.085938 20.941406 17.363281 20.746094 L 18.976562 19.609375 L 22.714844 21.847656 C 22.886719 21.941406 22.976562 22.144531 22.945312 22.332031 Z M 23.054688 21.617188 C 23.011719 21.585938 22.96875 21.546875 22.917969 21.519531 L 19.078125 19.214844 C 19.046875 19.199219 19.007812 19.191406 18.96875 19.191406 C 18.925781 19.191406 18.882812 19.203125 18.851562 19.226562 L 17.140625 20.429688 C 16.875 20.625 16.449219 20.445312 16.425781 20.105469 C 16.410156 19.976562 16.453125 19.84375 16.546875 19.746094 L 17.601562 18.648438 L 20.019531 17.644531 L 21.675781 17.097656 L 23.476562 19.859375 C 23.328125 20.464844 23.351562 21.09375 23.054688 21.617188 Z M 25.238281 19.269531 C 25.226562 19.324219 25.195312 19.371094 25.148438 19.398438 L 24.261719 19.964844 C 24.167969 20.03125 24.027344 20 23.964844 19.902344 L 23.855469 19.730469 C 23.851562 19.726562 23.847656 19.71875 23.847656 19.714844 L 21.941406 16.792969 C 21.878906 16.695312 21.898438 16.566406 22.003906 16.5 L 22.890625 15.933594 C 22.984375 15.871094 23.125 15.902344 23.183594 16 L 25.210938 19.109375 C 25.238281 19.15625 25.25 19.210938 25.238281 19.269531 Z M 14.664062 15.710938 L 16.320312 14.976562 C 17.371094 15.625 18.773438 15.625 19.824219 14.976562 L 21.484375 15.710938 C 21.507812 15.71875 21.535156 15.726562 21.5625 15.726562 C 21.695312 15.730469 21.796875 15.578125 21.738281 15.457031 L 20.988281 13.789062 C 22.296875 11.632812 20.613281 8.75 18.074219 8.792969 C 15.539062 8.75 13.847656 11.632812 15.160156 13.789062 L 14.410156 15.457031 C 14.375 15.527344 14.394531 15.613281 14.449219 15.667969 C 14.507812 15.722656 14.59375 15.742188 14.664062 15.710938 Z M 15.554688 13.855469 C 15.582031 13.800781 15.574219 13.734375 15.539062 13.679688 C 15.25 13.210938 15.09375 12.675781 15.09375 12.128906 C 15.09375 10.5 16.425781 9.175781 18.070312 9.175781 C 19.714844 9.175781 21.050781 10.5 21.050781 12.128906 C 21.050781 12.675781 20.898438 13.210938 20.605469 13.679688 C 20.570312 13.734375 20.570312 13.800781 20.59375 13.855469 L 21.175781 15.15625 L 19.886719 14.585938 C 19.824219 14.558594 19.757812 14.5625 19.703125 14.597656 C 18.738281 15.238281 17.410156 15.238281 16.445312 14.597656 C 16.390625 14.5625 16.320312 14.558594 16.261719 14.585938 L 14.96875 15.15625 Z M 18.074219 13.539062 C 17.390625 13.558594 17.390625 14.550781 18.074219 14.566406 C 18.757812 14.550781 18.757812 13.558594 18.074219 13.539062 Z M 18.074219 14.1875 C 17.902344 14.1875 17.902344 13.925781 18.074219 13.925781 C 18.25 13.925781 18.25 14.1875 18.074219 14.1875 Z M 18.074219 13.503906 C 18.359375 13.503906 18.59375 13.269531 18.59375 13.003906 L 18.785156 10.652344 C 18.785156 10.265625 18.464844 9.949219 18.074219 9.949219 C 17.683594 9.949219 17.363281 10.265625 17.363281 10.667969 L 17.554688 12.988281 C 17.554688 13.269531 17.785156 13.503906 18.074219 13.503906 Z M 18.074219 10.332031 C 18.25 10.332031 18.398438 10.476562 18.398438 10.632812 L 18.207031 12.988281 C 18.203125 13.164062 17.9375 13.164062 17.941406 12.972656 C 17.941406 12.972656 17.753906 10.652344 17.753906 10.652344 C 17.753906 10.476562 17.894531 10.332031 18.074219 10.332031 Z M 18.074219 10.332031 "/></g><g clip-rule="nonzero" clip-path="url(#e5be7326c6)"><path style=" stroke:none;fill-rule:nonzero;fill:#000000;fill-opacity:1;" d="M 11.921875 8.582031 C 11.921875 8.582031 10.859375 7.027344 10.859375 7.027344 C 10.769531 6.890625 10.5625 6.847656 10.425781 6.9375 L 9.960938 7.21875 C 9.859375 7.285156 9.804688 7.394531 9.820312 7.503906 L 8.960938 7.777344 L 8.160156 8.09375 L 6.90625 7.789062 L 6.109375 7.671875 C 6.230469 7.53125 6.210938 7.320312 6.042969 7.21875 C 6.042969 7.21875 5.578125 6.9375 5.578125 6.9375 C 5.433594 6.847656 5.238281 6.886719 5.144531 7.027344 L 4.082031 8.582031 C 3.988281 8.714844 4.035156 8.910156 4.179688 8.992188 C 4.179688 8.992188 4.640625 9.277344 4.640625 9.277344 C 4.757812 9.351562 4.925781 9.335938 5.023438 9.242188 C 5.113281 9.464844 5.238281 9.789062 5.324219 10.023438 C 5.386719 10.1875 5.5 10.328125 5.644531 10.4375 C 5.402344 10.742188 5.703125 11.191406 6.097656 11.113281 C 6.066406 11.445312 6.480469 11.683594 6.78125 11.511719 C 6.84375 11.789062 7.21875 11.925781 7.46875 11.765625 C 7.554688 12.085938 8.023438 12.1875 8.246094 11.929688 C 8.363281 12 8.453125 12.046875 8.503906 12.074219 C 8.796875 12.253906 9.222656 12.023438 9.195312 11.6875 C 9.488281 11.871094 9.910156 11.628906 9.882812 11.300781 C 10.386719 11.671875 10.964844 11.0625 10.507812 10.652344 C 10.71875 10.570312 10.832031 10.316406 10.746094 10.109375 C 10.949219 9.863281 10.941406 9.570312 11.015625 9.265625 C 11.117188 9.339844 11.261719 9.34375 11.367188 9.277344 C 11.367188 9.277344 11.832031 8.992188 11.832031 8.992188 C 11.972656 8.910156 12.015625 8.714844 11.921875 8.582031 Z M 4.902344 9.082031 C 4.886719 9.109375 4.863281 9.125 4.832031 9.128906 C 4.804688 9.132812 4.773438 9.128906 4.75 9.113281 L 4.285156 8.832031 C 4.257812 8.816406 4.242188 8.792969 4.238281 8.765625 C 4.230469 8.738281 4.238281 8.710938 4.253906 8.6875 L 5.316406 7.132812 C 5.347656 7.082031 5.417969 7.066406 5.46875 7.097656 L 5.933594 7.382812 C 5.984375 7.414062 6 7.480469 5.96875 7.527344 Z M 5.871094 10.886719 C 5.757812 10.816406 5.726562 10.660156 5.804688 10.550781 L 5.867188 10.464844 C 5.902344 10.414062 5.988281 10.300781 6.023438 10.25 C 6.222656 9.996094 6.621094 10.253906 6.441406 10.523438 C 6.417969 10.554688 6.371094 10.621094 6.347656 10.65625 L 6.222656 10.824219 C 6.148438 10.933594 5.980469 10.960938 5.871094 10.886719 Z M 6.835938 11.167969 L 6.761719 11.269531 C 6.679688 11.378906 6.523438 11.40625 6.40625 11.332031 C 6.292969 11.261719 6.261719 11.105469 6.339844 11 L 6.441406 10.863281 L 6.5625 10.691406 C 6.789062 10.425781 7.183594 10.742188 6.953125 11.003906 C 6.953125 11.007812 6.832031 11.171875 6.835938 11.167969 Z M 7.429688 11.539062 C 7.351562 11.648438 7.191406 11.675781 7.078125 11.601562 C 6.96875 11.535156 6.933594 11.378906 7 11.277344 C 7.011719 11.265625 7.140625 11.082031 7.148438 11.078125 C 7.167969 11.050781 7.210938 10.992188 7.230469 10.964844 C 7.425781 10.710938 7.820312 10.964844 7.652344 11.230469 C 7.652344 11.230469 7.429688 11.539062 7.429688 11.539062 Z M 8.113281 11.78125 C 8.035156 11.890625 7.875 11.917969 7.761719 11.84375 C 7.644531 11.773438 7.613281 11.613281 7.695312 11.507812 C 7.714844 11.480469 7.828125 11.324219 7.84375 11.300781 C 7.863281 11.273438 7.910156 11.203125 7.9375 11.179688 C 8.160156 10.96875 8.5 11.230469 8.332031 11.476562 C 8.320312 11.496094 8.121094 11.773438 8.113281 11.78125 Z M 8.957031 11.828125 C 8.882812 11.941406 8.726562 11.980469 8.605469 11.914062 C 8.554688 11.882812 8.480469 11.839844 8.363281 11.773438 C 8.453125 11.644531 8.597656 11.488281 8.578125 11.324219 L 8.886719 11.515625 C 8.992188 11.585938 9.019531 11.726562 8.957031 11.828125 Z M 10.566406 10.296875 C 10.542969 10.460938 10.34375 10.550781 10.195312 10.472656 C 10.195312 10.472656 9.175781 9.882812 9.175781 9.882812 C 9.0625 9.820312 8.957031 9.980469 9.070312 10.046875 C 9.070312 10.046875 10.089844 10.636719 10.089844 10.636719 C 10.21875 10.722656 10.429688 10.789062 10.460938 10.929688 C 10.519531 11.128906 10.265625 11.308594 10.082031 11.195312 C 9.820312 11.050781 9.097656 10.613281 8.832031 10.449219 C 8.722656 10.382812 8.613281 10.542969 8.722656 10.609375 C 8.722656 10.609375 9.566406 11.121094 9.566406 11.121094 C 9.839844 11.296875 9.578125 11.683594 9.296875 11.527344 C 9.296875 11.527344 9 11.355469 9 11.355469 L 8.386719 10.976562 C 8.226562 10.910156 8.03125 10.882812 7.875 10.984375 C 7.800781 10.71875 7.460938 10.589844 7.210938 10.726562 C 7.15625 10.511719 6.917969 10.363281 6.6875 10.410156 C 6.707031 10.03125 6.222656 9.808594 5.925781 10.070312 C 5.867188 10.113281 5.800781 10.222656 5.757812 10.277344 C 5.644531 10.195312 5.5625 10.085938 5.515625 9.960938 C 5.410156 9.679688 5.25 9.269531 5.164062 9.054688 L 5.988281 7.851562 L 6.863281 7.980469 L 7.847656 8.21875 C 7.820312 8.230469 7.652344 8.289062 7.632812 8.3125 C 7.632812 8.3125 7.066406 8.875 7.066406 8.875 C 6.878906 9.054688 6.917969 9.375 7.140625 9.511719 C 7.289062 9.605469 7.496094 9.601562 7.640625 9.503906 L 8.484375 8.9375 L 10.445312 10.054688 C 10.535156 10.101562 10.582031 10.203125 10.566406 10.296875 Z M 10.621094 9.941406 C 10.601562 9.925781 10.578125 9.90625 10.550781 9.890625 L 8.539062 8.738281 C 8.523438 8.730469 8.5 8.726562 8.480469 8.726562 C 8.460938 8.726562 8.4375 8.730469 8.421875 8.746094 L 7.523438 9.347656 C 7.386719 9.445312 7.160156 9.351562 7.148438 9.183594 C 7.140625 9.121094 7.164062 9.054688 7.214844 9.003906 L 7.765625 8.457031 L 9.03125 7.953125 L 9.902344 7.679688 L 10.84375 9.0625 C 10.765625 9.363281 10.777344 9.679688 10.621094 9.941406 Z M 11.765625 8.765625 C 11.761719 8.792969 11.742188 8.816406 11.71875 8.832031 L 11.253906 9.113281 C 11.203125 9.144531 11.132812 9.132812 11.101562 9.082031 L 11.042969 8.996094 C 11.039062 8.996094 11.039062 8.992188 11.039062 8.988281 L 10.039062 7.527344 C 10.007812 7.480469 10.019531 7.414062 10.070312 7.382812 L 10.535156 7.097656 C 10.585938 7.066406 10.660156 7.082031 10.691406 7.132812 L 11.753906 8.6875 C 11.765625 8.710938 11.773438 8.738281 11.765625 8.765625 Z M 6.226562 6.984375 L 7.097656 6.621094 C 7.644531 6.945312 8.378906 6.945312 8.929688 6.621094 L 9.800781 6.984375 C 9.8125 6.992188 9.824219 6.996094 9.839844 6.996094 C 9.910156 6.996094 9.960938 6.921875 9.933594 6.859375 L 9.539062 6.027344 C 10.226562 4.949219 9.34375 3.507812 8.015625 3.527344 C 6.683594 3.507812 5.800781 4.949219 6.488281 6.027344 L 6.09375 6.859375 C 6.078125 6.894531 6.085938 6.9375 6.117188 6.964844 C 6.144531 6.992188 6.191406 7.003906 6.226562 6.984375 Z M 6.695312 6.058594 C 6.707031 6.03125 6.703125 6 6.6875 5.972656 C 6.535156 5.738281 6.453125 5.46875 6.453125 5.195312 C 6.453125 4.382812 7.152344 3.71875 8.011719 3.71875 C 8.875 3.71875 9.574219 4.382812 9.574219 5.195312 C 9.574219 5.46875 9.492188 5.738281 9.339844 5.972656 C 9.320312 6 9.320312 6.03125 9.332031 6.058594 L 9.640625 6.710938 L 8.960938 6.425781 C 8.929688 6.410156 8.894531 6.414062 8.867188 6.429688 C 8.359375 6.75 7.664062 6.75 7.160156 6.429688 C 7.132812 6.414062 7.09375 6.410156 7.0625 6.425781 L 6.386719 6.710938 Z M 8.015625 5.902344 C 7.65625 5.910156 7.65625 6.40625 8.015625 6.414062 C 8.371094 6.40625 8.371094 5.910156 8.015625 5.902344 Z M 8.015625 6.226562 C 7.921875 6.226562 7.921875 6.09375 8.015625 6.09375 C 8.105469 6.09375 8.105469 6.226562 8.015625 6.226562 Z M 8.015625 5.882812 C 8.164062 5.882812 8.285156 5.765625 8.285156 5.632812 L 8.386719 4.457031 C 8.386719 4.265625 8.21875 4.105469 8.015625 4.105469 C 7.808594 4.105469 7.640625 4.265625 7.640625 4.464844 L 7.742188 5.625 C 7.742188 5.765625 7.863281 5.882812 8.015625 5.882812 Z M 8.015625 4.296875 C 8.105469 4.296875 8.183594 4.371094 8.183594 4.449219 L 8.082031 5.625 C 8.082031 5.714844 7.941406 5.714844 7.945312 5.617188 C 7.945312 5.617188 7.84375 4.457031 7.84375 4.457031 C 7.84375 4.371094 7.921875 4.296875 8.015625 4.296875 Z M 8.015625 4.296875 "/></g><g clip-rule="nonzero" clip-path="url(#c7fe3a1c50)"><path style=" stroke:none;fill-rule:nonzero;fill:#000000;fill-opacity:1;" d="M 32.117188 8.582031 C 32.117188 8.582031 31.054688 7.027344 31.054688 7.027344 C 30.964844 6.890625 30.757812 6.847656 30.621094 6.9375 L 30.15625 7.21875 C 30.050781 7.285156 30 7.394531 30.015625 7.503906 L 29.15625 7.777344 L 28.355469 8.09375 L 27.101562 7.789062 L 26.304688 7.671875 C 26.421875 7.53125 26.402344 7.320312 26.238281 7.21875 C 26.238281 7.21875 25.773438 6.9375 25.773438 6.9375 C 25.628906 6.847656 25.433594 6.886719 25.339844 7.027344 L 24.277344 8.582031 C 24.183594 8.714844 24.226562 8.910156 24.371094 8.992188 C 24.371094 8.992188 24.835938 9.277344 24.835938 9.277344 C 24.953125 9.351562 25.121094 9.335938 25.21875 9.242188 C 25.308594 9.464844 25.429688 9.789062 25.519531 10.023438 C 25.582031 10.1875 25.695312 10.328125 25.839844 10.4375 C 25.597656 10.742188 25.898438 11.191406 26.292969 11.113281 C 26.261719 11.445312 26.675781 11.683594 26.972656 11.511719 C 27.039062 11.789062 27.414062 11.925781 27.660156 11.765625 C 27.746094 12.085938 28.21875 12.1875 28.441406 11.929688 C 28.558594 12 28.648438 12.046875 28.699219 12.074219 C 28.992188 12.253906 29.417969 12.023438 29.386719 11.6875 C 29.683594 11.871094 30.105469 11.628906 30.078125 11.300781 C 30.582031 11.671875 31.160156 11.0625 30.703125 10.652344 C 30.910156 10.570312 31.023438 10.316406 30.941406 10.109375 C 31.144531 9.863281 31.136719 9.570312 31.207031 9.265625 C 31.308594 9.339844 31.457031 9.34375 31.5625 9.277344 C 31.5625 9.277344 32.027344 8.992188 32.027344 8.992188 C 32.164062 8.910156 32.210938 8.714844 32.117188 8.582031 Z M 25.097656 9.082031 C 25.082031 9.109375 25.058594 9.125 25.027344 9.128906 C 25 9.132812 24.96875 9.128906 24.941406 9.113281 L 24.480469 8.832031 C 24.453125 8.816406 24.4375 8.792969 24.429688 8.765625 C 24.425781 8.738281 24.429688 8.710938 24.445312 8.6875 L 25.507812 7.132812 C 25.542969 7.082031 25.613281 7.066406 25.664062 7.097656 L 26.128906 7.382812 C 26.179688 7.414062 26.195312 7.480469 26.160156 7.527344 Z M 26.0625 10.886719 C 25.949219 10.816406 25.917969 10.660156 26 10.550781 L 26.0625 10.464844 C 26.097656 10.414062 26.179688 10.300781 26.21875 10.25 C 26.417969 9.996094 26.816406 10.253906 26.636719 10.523438 C 26.613281 10.554688 26.5625 10.621094 26.539062 10.65625 L 26.417969 10.824219 C 26.34375 10.933594 26.175781 10.960938 26.0625 10.886719 Z M 27.027344 11.167969 L 26.957031 11.269531 C 26.875 11.378906 26.71875 11.40625 26.601562 11.332031 C 26.488281 11.261719 26.457031 11.105469 26.535156 11 L 26.632812 10.863281 L 26.757812 10.691406 C 26.984375 10.425781 27.378906 10.742188 27.144531 11.003906 C 27.148438 11.007812 27.023438 11.171875 27.027344 11.167969 Z M 27.621094 11.539062 C 27.542969 11.648438 27.386719 11.675781 27.269531 11.601562 C 27.160156 11.535156 27.128906 11.378906 27.195312 11.277344 C 27.207031 11.265625 27.335938 11.082031 27.339844 11.078125 C 27.359375 11.050781 27.402344 10.992188 27.421875 10.964844 C 27.621094 10.710938 28.015625 10.964844 27.847656 11.230469 C 27.84375 11.230469 27.621094 11.539062 27.621094 11.539062 Z M 28.308594 11.78125 C 28.226562 11.890625 28.070312 11.917969 27.953125 11.84375 C 27.839844 11.773438 27.808594 11.613281 27.886719 11.507812 C 27.90625 11.480469 28.019531 11.324219 28.039062 11.300781 C 28.058594 11.273438 28.105469 11.203125 28.128906 11.179688 C 28.351562 10.96875 28.691406 11.230469 28.523438 11.476562 C 28.515625 11.496094 28.3125 11.773438 28.308594 11.78125 Z M 29.148438 11.828125 C 29.078125 11.941406 28.921875 11.980469 28.800781 11.914062 C 28.75 11.882812 28.675781 11.839844 28.558594 11.773438 C 28.648438 11.644531 28.792969 11.488281 28.773438 11.324219 L 29.082031 11.515625 C 29.183594 11.585938 29.214844 11.726562 29.148438 11.828125 Z M 30.761719 10.296875 C 30.738281 10.460938 30.539062 10.550781 30.386719 10.472656 C 30.386719 10.472656 29.371094 9.882812 29.371094 9.882812 C 29.257812 9.820312 29.152344 9.980469 29.265625 10.046875 C 29.265625 10.046875 30.285156 10.636719 30.285156 10.636719 C 30.414062 10.722656 30.625 10.789062 30.652344 10.929688 C 30.714844 11.128906 30.460938 11.308594 30.277344 11.195312 C 30.011719 11.050781 29.292969 10.613281 29.027344 10.449219 C 28.917969 10.382812 28.804688 10.542969 28.917969 10.609375 C 28.917969 10.609375 29.761719 11.121094 29.761719 11.121094 C 30.03125 11.296875 29.769531 11.683594 29.492188 11.527344 C 29.492188 11.527344 29.191406 11.355469 29.191406 11.355469 L 28.582031 10.976562 C 28.421875 10.910156 28.226562 10.882812 28.070312 10.984375 C 27.996094 10.71875 27.652344 10.589844 27.40625 10.726562 C 27.351562 10.511719 27.109375 10.363281 26.878906 10.410156 C 26.902344 10.03125 26.417969 9.808594 26.121094 10.070312 C 26.0625 10.113281 25.996094 10.222656 25.953125 10.277344 C 25.839844 10.195312 25.757812 10.085938 25.707031 9.960938 C 25.601562 9.679688 25.441406 9.269531 25.359375 9.054688 L 26.179688 7.851562 L 27.058594 7.980469 L 28.042969 8.21875 C 28.011719 8.230469 27.84375 8.289062 27.828125 8.3125 C 27.828125 8.3125 27.261719 8.875 27.261719 8.875 C 27.074219 9.054688 27.109375 9.375 27.332031 9.511719 C 27.480469 9.605469 27.691406 9.601562 27.835938 9.503906 L 28.679688 8.9375 L 30.640625 10.054688 C 30.726562 10.101562 30.777344 10.203125 30.761719 10.296875 Z M 30.816406 9.941406 C 30.792969 9.925781 30.773438 9.90625 30.746094 9.890625 L 28.734375 8.738281 C 28.71875 8.730469 28.695312 8.726562 28.675781 8.726562 C 28.652344 8.726562 28.632812 8.730469 28.613281 8.746094 L 27.71875 9.347656 C 27.582031 9.445312 27.355469 9.351562 27.34375 9.183594 C 27.335938 9.121094 27.359375 9.054688 27.40625 9.003906 L 27.960938 8.457031 L 29.226562 7.953125 L 30.09375 7.679688 L 31.039062 9.0625 C 30.960938 9.363281 30.972656 9.679688 30.816406 9.941406 Z M 31.960938 8.765625 C 31.953125 8.792969 31.9375 8.816406 31.914062 8.832031 L 31.449219 9.113281 C 31.398438 9.144531 31.324219 9.132812 31.292969 9.082031 L 31.234375 8.996094 C 31.234375 8.996094 31.230469 8.992188 31.230469 8.988281 L 30.234375 7.527344 C 30.203125 7.480469 30.210938 7.414062 30.265625 7.382812 L 30.730469 7.097656 C 30.78125 7.066406 30.851562 7.082031 30.882812 7.132812 L 31.945312 8.6875 C 31.960938 8.710938 31.964844 8.738281 31.960938 8.765625 Z M 26.421875 6.984375 L 27.289062 6.621094 C 27.839844 6.945312 28.574219 6.945312 29.125 6.621094 L 29.992188 6.984375 C 30.003906 6.992188 30.019531 6.996094 30.035156 6.996094 C 30.105469 6.996094 30.15625 6.921875 30.125 6.859375 L 29.734375 6.027344 C 30.421875 4.949219 29.539062 3.507812 28.207031 3.527344 C 26.878906 3.507812 25.996094 4.949219 26.679688 6.027344 L 26.289062 6.859375 C 26.269531 6.894531 26.28125 6.9375 26.308594 6.964844 C 26.339844 6.992188 26.382812 7.003906 26.421875 6.984375 Z M 26.886719 6.058594 C 26.902344 6.03125 26.898438 6 26.878906 5.972656 C 26.726562 5.738281 26.644531 5.46875 26.644531 5.195312 C 26.644531 4.382812 27.34375 3.71875 28.207031 3.71875 C 29.066406 3.71875 29.765625 4.382812 29.765625 5.195312 C 29.765625 5.46875 29.6875 5.738281 29.535156 5.972656 C 29.515625 6 29.515625 6.03125 29.527344 6.058594 L 29.832031 6.710938 L 29.15625 6.425781 C 29.125 6.410156 29.089844 6.414062 29.0625 6.429688 C 28.554688 6.75 27.859375 6.75 27.355469 6.429688 C 27.324219 6.414062 27.289062 6.410156 27.257812 6.425781 L 26.582031 6.710938 Z M 28.207031 5.902344 C 27.851562 5.910156 27.851562 6.40625 28.207031 6.414062 C 28.566406 6.40625 28.566406 5.910156 28.207031 5.902344 Z M 28.207031 6.226562 C 28.117188 6.226562 28.117188 6.09375 28.207031 6.09375 C 28.300781 6.09375 28.300781 6.226562 28.207031 6.226562 Z M 28.207031 5.882812 C 28.359375 5.882812 28.480469 5.765625 28.480469 5.632812 L 28.582031 4.457031 C 28.582031 4.265625 28.414062 4.105469 28.207031 4.105469 C 28.003906 4.105469 27.835938 4.265625 27.835938 4.464844 L 27.9375 5.625 C 27.9375 5.765625 28.058594 5.882812 28.207031 5.882812 Z M 28.207031 4.296875 C 28.300781 4.296875 28.378906 4.371094 28.378906 4.449219 L 28.277344 5.625 C 28.277344 5.714844 28.136719 5.714844 28.140625 5.617188 C 28.140625 5.617188 28.039062 4.457031 28.039062 4.457031 C 28.039062 4.371094 28.113281 4.296875 28.207031 4.296875 Z M 28.207031 4.296875 "/></g></g></svg>